<svg width="783" height="698" viewBox="0 0 783 698" fill="none" xmlns="http://www.w3.org/2000/svg">
<path d="M382.45 146.462C350.137 222.499 300.542 118.21 233.873 129.076C41.4852 207.314 62.4384 450.72 123.393 535.477C172.991 604.443 233.873 639.794 327.21 559.383C420.547 478.972 513.884 644.14 572.933 685.432C631.983 726.724 721.51 659.353 710.081 509.398C698.652 359.443 771.036 355.096 780.56 302.938C791.021 245.651 755.797 146.462 649.127 50.8388C542.456 -44.7849 443.405 3.02697 382.45 146.462Z" fill="#FFE5D9"/>
<path d="M338.639 146.462C306.326 222.499 256.731 118.21 190.062 129.076C-2.32573 207.314 18.6275 450.72 79.5821 535.477C129.18 604.443 190.062 639.794 283.399 559.383C376.736 478.972 470.073 644.14 529.122 685.432C588.172 726.724 677.699 659.353 666.27 509.398C654.841 359.443 727.225 355.096 736.749 302.938C747.21 245.651 711.986 146.462 605.316 50.8388C498.645 -44.7849 399.594 3.02697 338.639 146.462Z" stroke="#9D8189"/>
<path d="M302.447 146.462C270.135 222.499 220.54 118.21 153.871 129.076C-38.5175 207.314 -17.5643 450.72 43.3903 535.477C92.9882 604.443 153.871 639.794 247.207 559.383C340.544 478.972 433.881 644.14 492.931 685.432C551.98 726.724 641.508 659.353 630.079 509.398C618.65 359.443 691.033 355.096 700.557 302.938C711.018 245.651 675.795 146.462 569.124 50.8388C462.453 -44.7849 363.402 3.02697 302.447 146.462Z" stroke="#9D8189"/>
<circle r="8.79967" transform="matrix(-1 0 0 1 18.0955 480.346)" fill="#F4ACB7"/>
<circle r="4.10651" transform="matrix(-1 0 0 1 62.3458 502.639)" fill="#F4ACB7"/>
<circle r="4.10651" transform="matrix(-1 0 0 1 654.417 616.709)" fill="#F4ACB7"/>
<circle r="4.10651" transform="matrix(-1 0 0 1 645.25 638.854)" fill="#F4ACB7"/>
<circle r="4.10651" transform="matrix(-1 0 0 1 661.017 596.909)" fill="#F4ACB7"/>
<circle r="5.2798" transform="matrix(-1 0 0 1 382.335 69.6952)" fill="#F4ACB7"/>
<circle r="5.2798" transform="matrix(-1 0 0 1 405.801 40.6054)" fill="#F4ACB7"/>
</svg>
