<svg width="16" height="16" viewBox="0 0 16 16" fill="none" xmlns="http://www.w3.org/2000/svg">
<path d="M6.62616 1.681C7.42319 0.555079 9.0939 0.555078 9.89093 1.681L11.1756 3.49582C11.4294 3.8543 11.7941 4.11927 12.2135 4.24984L14.3364 4.91086C15.6536 5.32095 16.1698 6.90989 15.3453 8.01584L14.0163 9.79848C13.7538 10.1506 13.6145 10.5793 13.6199 11.0185L13.6473 13.2419C13.6643 14.6212 12.3126 15.6032 11.006 15.1608L8.89995 14.4478C8.48395 14.3069 8.03314 14.3069 7.61714 14.4478L5.51106 15.1608C4.20445 15.6032 2.85282 14.6212 2.86981 13.2419L2.89718 11.0185C2.90259 10.5793 2.76329 10.1506 2.50077 9.79848L1.17177 8.01584C0.347253 6.90989 0.863527 5.32095 2.18064 4.91086L4.30363 4.24984C4.72298 4.11927 5.08769 3.8543 5.34145 3.49582L6.62616 1.681Z" fill="white"/>
</svg>
