<svg width="288" height="314" viewBox="0 0 288 314" fill="none" xmlns="http://www.w3.org/2000/svg">
<path d="M55.1257 125.997C-27.16 99.711 1.79238 25.5206 26.5543 -8.28896C52.3999 -79.7175 240.84 -59.7175 277.983 -66.8604C315.126 -74.0032 309.411 60.2825 352.269 63.1396C395.126 65.9968 342.269 244.568 325.126 273.14C307.983 301.711 203.697 261.711 197.983 233.14C192.269 204.568 157.983 158.854 55.1257 125.997Z" fill="#FFE5D9"/>
<path d="M78.7748 156.372C-3.51094 130.087 25.4414 55.8962 50.2033 22.0867C76.0489 -49.3419 264.489 -29.3419 301.632 -36.4847C338.775 -43.6276 333.06 90.6581 375.918 93.5153C418.775 96.3724 365.918 274.944 348.775 303.515C331.632 332.087 227.346 292.087 221.632 263.515C215.918 234.944 181.632 189.23 78.7748 156.372Z" stroke="#9D8189"/>
<circle r="3.5" transform="matrix(-1 0 0 1 256.637 293.419)" fill="#F4ACB7"/>
<circle r="4.5" transform="matrix(-1 0 0 1 149.171 186.867)" fill="#F4ACB7"/>
<circle r="7.5" transform="matrix(-1 0 0 1 30.2836 121.958)" fill="#F4ACB7"/>
</svg>
