<svg width="475" height="287" viewBox="0 0 475 287" fill="none" xmlns="http://www.w3.org/2000/svg">
<path d="M420.386 267.138C502.671 240.852 473.719 166.662 448.957 132.852C423.112 61.4238 241.293 0.566769 203.47 0.566772C79.47 0.566784 203.47 162.567 59.47 226.567C20.2197 244.011 133.243 385.71 150.386 414.281C167.529 442.852 271.814 402.852 277.529 374.281C283.243 345.71 317.529 299.995 420.386 267.138Z" fill="#FFE5D9"/>
<path d="M385.188 309.864C470.582 282.585 440.536 205.592 414.839 170.505C388.017 96.3783 199.33 33.2223 160.078 33.2223C31.3936 33.2223 160.078 201.342 10.6381 267.76C-30.0949 285.863 87.1979 432.914 104.988 462.565C122.779 492.216 231.004 450.705 236.934 421.054C242.864 391.403 278.445 343.962 385.188 309.864Z" stroke="#9D8189"/>
<circle cx="21.9756" cy="263.369" r="7" fill="#F4ACB7"/>
<circle cx="5.94458" cy="271.931" r="5" fill="#F4ACB7"/>
<circle cx="140.268" cy="35.9785" r="5" fill="#F4ACB7"/>
</svg>
