<svg width="360" height="299" viewBox="0 0 360 299" fill="none" xmlns="http://www.w3.org/2000/svg">
<path d="M-59.8641 267.138C-142.15 240.852 -113.197 166.662 -88.4355 132.852C-62.5899 61.4238 119.228 0.566769 157.052 0.566772C281.052 0.566784 157.052 162.567 301.052 226.567C340.302 244.011 227.279 385.71 210.136 414.281C192.993 442.852 88.7074 402.852 82.9931 374.281C77.2788 345.71 42.993 299.995 -59.8641 267.138Z" fill="#FFE5D9"/>
<path d="M-24.6664 309.864C-110.061 282.585 -80.0144 205.592 -54.3171 170.505C-27.4952 96.3783 161.191 33.2223 200.444 33.2223C329.128 33.2223 200.444 201.342 349.884 267.76C390.617 285.863 273.324 432.914 255.533 462.565C237.743 492.216 129.518 450.705 123.587 421.054C117.657 391.403 82.0764 343.962 -24.6664 309.864Z" stroke="#9D8189"/>
<circle r="7" transform="matrix(-1 0 0 1 338.546 263.369)" fill="#F4ACB7"/>
<circle r="5" transform="matrix(-1 0 0 1 354.577 271.931)" fill="#F4ACB7"/>
<circle r="5" transform="matrix(-1 0 0 1 220.254 35.9785)" fill="#F4ACB7"/>
</svg>
